<svg width="436" height="660" viewBox="0 0 436 660" fill="none" xmlns="http://www.w3.org/2000/svg">
<path d="M396.655 589.12C407.108 572.693 413.827 557.016 419.056 543.573C466.843 418.136 393.671 303.893 390.682 300.16C386.947 415.144 308.546 444.267 304.067 445.76C307.051 442.026 367.536 366.615 361.562 219.52C355.588 77.6533 230.15 7.46667 215.962 0C227.91 7.4688 233.134 35.0933 233.134 35.0933C254.79 132.905 139.055 224.747 139.055 224.747C-164.092 508.48 121.883 655.573 128.602 659.307C125.618 654.078 33.7739 471.147 190.575 369.6C189.83 372.584 172.654 421.865 246.575 511.467C246.575 511.467 282.414 557.759 266.737 627.945C268.976 626.451 315.267 597.331 309.299 528.639C312.284 531.623 360.821 595.092 331.701 658.56C335.43 656.32 381.722 617.492 396.654 589.117L396.655 589.12Z" fill="black"/>
</svg>
