<svg width="747" height="425" viewBox="0 0 747 425" fill="none" xmlns="http://www.w3.org/2000/svg">
<path d="M28.4741 101.576C258.381 183.712 488.301 -3.73559 718.207 78.3991C733.765 83.998 746.677 77.1543 746.677 61.4458L746.672 61.4405C746.135 52.7635 743.187 44.4099 738.156 37.3206C733.13 30.2268 726.219 24.6851 718.203 21.3099C488.296 -60.8261 258.389 126.774 28.4693 44.4872C12.912 38.8883 0 45.732 0 61.4405C0.536453 70.1176 3.4844 78.4765 8.5156 85.5659C13.5416 92.6596 20.4531 98.2014 28.4689 101.577L28.4741 101.576Z" fill="black"/>
<path d="M718.205 172.35C488.298 90.2192 258.391 277.819 28.4715 195.533C12.7581 189.928 0.00213623 196.928 0.00213623 212.486C0.53859 221.163 3.48653 229.517 8.51773 236.611C13.5437 243.7 20.4552 249.247 28.4711 252.622C258.378 334.758 488.298 147.153 718.204 229.445C733.912 235.044 746.668 228.044 746.668 212.486C746.132 203.809 743.184 195.455 738.153 188.361C733.127 181.272 726.215 175.725 718.2 172.35H718.205Z" fill="black"/>
<path d="M718.205 323.39C488.298 241.254 258.391 428.702 28.4715 346.567C12.7581 340.968 0.00213623 347.812 0.00213623 363.526C0.53859 372.203 3.48653 380.556 8.51773 387.646C13.5437 394.74 20.4552 400.281 28.4711 403.656C258.378 485.792 488.298 298.187 718.204 380.479C733.762 386.078 746.674 379.234 746.674 363.526H746.669C746.132 354.849 743.184 346.49 738.153 339.4C733.127 332.307 726.216 326.765 718.2 323.39H718.205Z" fill="black"/>
</svg>
