<svg width="48" height="43" viewBox="0 0 48 43" fill="none" xmlns="http://www.w3.org/2000/svg">
<path d="M21.8562 0.000252547C9.80379 0.000252547 0 9.6452 0 21.5C0 33.3549 9.80474 42.9998 21.8562 42.9998C22.284 43.0057 22.6965 42.8426 23.0016 42.547C23.3063 42.2511 23.4781 41.8476 23.4781 41.4266C23.4781 41.0056 23.3063 40.6018 23.0016 40.3062C22.6965 40.0107 22.2839 39.8475 21.8562 39.8534C11.5333 39.8534 3.19809 31.6547 3.19809 21.4999C3.19809 11.3451 11.5325 3.1464 21.8562 3.1464C32.179 3.1464 40.5142 11.3451 40.5142 21.4999C40.5142 25.9426 38.9115 30.0127 36.2497 33.1834V25.1702C36.2587 24.7444 36.0916 24.3333 35.7873 24.0308C35.4826 23.7283 35.0667 23.56 34.6337 23.5644C34.2066 23.5688 33.7989 23.7407 33.5016 24.0425C33.2043 24.3443 33.0422 24.7503 33.0511 25.1702V36.7067C33.0511 37.124 33.2196 37.5242 33.5195 37.819C33.8193 38.1142 34.2263 38.2799 34.6504 38.2799H46.378C46.8062 38.2861 47.2188 38.123 47.5234 37.8271C47.8285 37.5315 48 37.1281 48 36.7067C48 36.2857 47.8285 35.8822 47.5234 35.5867C47.2188 35.2907 46.8062 35.1276 46.378 35.1338H38.7482C41.8491 31.4222 43.7125 26.6715 43.7125 21.4998C43.7125 9.64401 33.9077 0 21.8563 0L21.8562 0.000252547Z" fill="#000"/>
</svg>
